<?xml version="1.0" encoding="utf-8"?>
<!-- Generator: Adobe Illustrator 19.0.0, SVG Export Plug-In . SVG Version: 6.00 Build 0)  -->
<svg version="1.1" id="Layer_1" xmlns="http://www.w3.org/2000/svg" xmlns:xlink="http://www.w3.org/1999/xlink" x="0px" y="0px"
	 viewBox="0 0 612 792" style="enable-background:new 0 0 612 792;" xml:space="preserve">
<style type="text/css">
	.st0{fill:url(#XMLID_2_);}
	.st1{fill:url(#XMLID_3_);}
	.st2{fill:#EB7989;}
	.st3{fill:#9F275A;}
	.st4{stroke:#000000;stroke-miterlimit:10;}
	.st5{fill:#FFFFFF;}
	.st6{fill:none;stroke:#FFFFFF;stroke-miterlimit:10;}
	.st7{fill:url(#XMLID_4_);}
</style>
<linearGradient id="XMLID_2_" gradientUnits="userSpaceOnUse" x1="664.9872" y1="500.8751" x2="802.5388" y2="500.8751" gradientTransform="matrix(-1 0 0 1 1033.3372 0)">
	<stop  offset="0" style="stop-color:#ED4697"/>
	<stop  offset="9.349365e-002" style="stop-color:#EC4F94"/>
	<stop  offset="0.2671" style="stop-color:#E9628C"/>
	<stop  offset="0.5017" style="stop-color:#E67A7B"/>
	<stop  offset="0.7851" style="stop-color:#E2955B"/>
	<stop  offset="1" style="stop-color:#DFAA2D"/>
</linearGradient>
<path id="XMLID_13_" class="st0" d="M340.3,434.3c-3.9,16.4-106.1,102.6-109.5,111.6c0.2,8,2.1,12.9,8.2,19.2
	c7.3-2.6,36.2-22.3,42-31.1c-12.4,18.7-21.8,26.3-28.6,33c-0.2,8.1,9.3,15.4,17.7,18.7c10.9-9.5,41-35,52.5-58.4
	c-2.6,20-21.1,42.3-37.6,58.5c8.3,7.2,21.1,7.7,26.5,3.5c46.7-41.8,77.4-128.8,40.4-179.6"/>
<g id="XMLID_17_">
	<linearGradient id="XMLID_3_" gradientUnits="userSpaceOnUse" x1="285.532" y1="450.4931" x2="285.532" y2="210.2858">
		<stop  offset="0" style="stop-color:#ED4697"/>
		<stop  offset="9.349365e-002" style="stop-color:#EC4F94"/>
		<stop  offset="0.2671" style="stop-color:#E9628C"/>
		<stop  offset="0.5017" style="stop-color:#E67A7B"/>
		<stop  offset="0.7851" style="stop-color:#E2955B"/>
		<stop  offset="1" style="stop-color:#DFAA2D"/>
	</linearGradient>
	<path id="XMLID_51_" class="st1" d="M306.5,302.6c-4.5-0.6,8.5-24.4,6.6-45.3c-0.9-9.6-9.1-18.4-15.5-24.2
		c-6-5.4-25.8-7.9-20.9-16.9c3.4-6.3-3.9-0.2-6.5-0.4c-2.2-0.1,13.6-13.2-9.1,0.9c-2.3,1.4-8.9,4.1-11.5,5.3
		c-3.7,1.7-9.8,5.5-16.2,11.6C217,249.2,208,292,206.5,302.2C184.9,422.9,326,435.4,333.2,439.6c29.4,12.7,25.3,12.4,32.9,8.7
		C373.8,443.7,315.1,308.1,306.5,302.6"/>
</g>
<g id="XMLID_16_">
	<path id="XMLID_43_" class="st2" d="M225.6,262.3c0.6,5.9,0.5,5.2,0.1,9.3c-0.3,3.4-4.5,5.5-7.3,7.6c-5.7,4.2-11.6,8.2-17.6,11.9
		c-0.8,0.5-1.8,1.1-2.8,0.3c-0.7-0.6-0.9-1.6-0.7-2.4c3.3-11.5,9.8-22.1,18.5-30.3L225.6,262.3z"/>
</g>
<g id="XMLID_9_">
	<path id="XMLID_38_" class="st3" d="M219.6,258.8c0.3,0,0.5,0.2,0.5,0.5c1.3,5.1,12.4,3.4,4.4,10.3c-3.8,3.2-2.5,2.1-6.5,5.3
		c-4.6,3.8-10.3,10.3-15.3,13.6c-0.7,0.5-1.8,1.1-3.1,1.1c-1.2,0-0.1-2.5,0.1-3.3c2.3-10.9,9.8-21.6,17.3-27.8
		C217,258.5,218.8,258.7,219.6,258.8z"/>
</g>
<g id="XMLID_14_">
	<path id="XMLID_39_" class="st2" d="M224.1,273.9c2.2-1.9,1.4-1.3,2.8-4.3c1.4-3-0.4-7.7-1.8-10.7c-1.9-4-6-6.5-9.9-8.6
		c-8.6-4.6-17.6-8.6-26.9-11.9c1.5,18.8,21.2,28.3,36,35.6"/>
</g>
<ellipse id="XMLID_22_" transform="matrix(0.9972 -7.433039e-002 7.433039e-002 0.9972 -18.6999 11.1391)" class="st4" cx="140.3" cy="256.8" rx="5.8" ry="5.4"/>
<g id="XMLID_23_">
	<g id="XMLID_46_">
		<path id="XMLID_50_" d="M140.5,261.9c7.4-0.3,11.2-12.4,13.2-18.2c-1,0.3-2.1,0.6-3.1,0.8c5.1,4.4,10.9,6.7,17.6,7.1
			c2.4,0.2,2.4-3.6,0-3.8c-5.7-0.4-10.6-2.4-15-6c-1.1-0.9-2.7-0.6-3.1,0.8c-1.2,3.3-5.1,15.2-9.6,15.4
			C138.1,258.2,138.1,262,140.5,261.9L140.5,261.9z"/>
	</g>
</g>
<g id="XMLID_21_">
	
		<ellipse id="XMLID_27_" transform="matrix(0.9972 -7.433039e-002 7.433039e-002 0.9972 -19.1761 12.3988)" class="st4" cx="157" cy="263.8" rx="5.8" ry="5.4"/>
	<g id="XMLID_45_">
		<path id="XMLID_35_" d="M157.2,267c1.7,0.4,3.3-1.2,4.3-2.7c3.1-4.3,5.5-9.1,7.1-14.1"/>
		<g id="XMLID_30_">
			<path id="XMLID_34_" d="M157.2,268.9c3.7,0.2,5.7-3.1,7.5-5.9c2.4-3.8,4.3-7.9,5.7-12.2c0.8-2.3-2.8-3.3-3.6-1
				c-1,2.9-2.2,5.7-3.6,8.4c-1.1,1.9-3.3,7.1-6,7C154.8,265,154.8,268.8,157.2,268.9L157.2,268.9z"/>
		</g>
	</g>
</g>
<g id="XMLID_24_">
	<path id="XMLID_26_" d="M261.5,267.6c0.5,6.9-4.7,10.7-12,9.7c-7.3-1-12.8-5.1-11.9-10.3c0.8-5.2,6.1-10.7,12.1-11.4
		C255.6,254.9,260.9,260.7,261.5,267.6z"/>
</g>
<g id="XMLID_5_">
	<path id="XMLID_96_" class="st5" d="M251.4,264.1c-0.7,2.2-1.9,3-3.2,2.2c-1.3-0.8-2.8-1.7-3-2.4c-0.2-0.7,1.1-2.5,3.2-3.2
		C250.7,260,252.1,261.9,251.4,264.1z"/>
	<path id="XMLID_90_" class="st6" d="M251.4,264.1c-0.7,2.2-1.9,3-3.2,2.2c-1.3-0.8-2.8-1.7-3-2.4c-0.2-0.7,1.1-2.5,3.2-3.2
		C250.7,260,252.1,261.9,251.4,264.1z"/>
</g>
<linearGradient id="XMLID_4_" gradientUnits="userSpaceOnUse" x1="491.3291" y1="431.6473" x2="345.5724" y2="322.9492" gradientTransform="matrix(-0.8016 -0.5978 -0.5978 0.8016 947.4912 301.9896)">
	<stop  offset="0" style="stop-color:#ED4697"/>
	<stop  offset="9.349365e-002" style="stop-color:#EC4F94"/>
	<stop  offset="0.2671" style="stop-color:#E9628C"/>
	<stop  offset="0.5017" style="stop-color:#E67A7B"/>
	<stop  offset="0.7851" style="stop-color:#E2955B"/>
	<stop  offset="1" style="stop-color:#DFAA2D"/>
</linearGradient>
<path id="XMLID_19_" class="st7" d="M358.9,351.6c20.9,4.3,42.2,16.6,56.3,26c33.1-11.8,56.9-28.6,62.3-33
	c-40.6-31.9-127.6-22.4-152.8-21c-13,0.4-29.1-4.6-29.1-4.6c0.5,3.5,4.4,8.2,6,13.1c0,0,12.4,25.4,2.5,50.4
	c12.4,4.4,19.8,5.3,32,6.4c-2.1-15.3-9.1-29.5-9.1-29.5c10.2,9.2,17.3,22.1,21,30.1c18.8,0.2,36.8-2.8,53-7.4
	C381.1,362.6,358.9,351.6,358.9,351.6z"/>
</svg>
